<svg xmlns="http://www.w3.org/2000/svg" viewBox="0 0 290 64"><defs id="SvgjsDefs1001"></defs><g id="SvgjsG1007" featurekey="root" fill="#ffffff"></g><g id="SvgjsG1008" featurekey="symbol1" fill="#a029e0" transform="matrix(0.7490547664004316,0,0,0.7490547664004316,-2.581907863154863,-5.659386158214046)"><g id="SvgjsG1009"><g><path d="M3.455,59.074C3.997,31.037,33.352,10.67,65.767,7.953c7.893-0.659,21.247-0.844,31.131,2.25l-9.352,17.253   c-6.528-1.661-14.235-2.134-21.918-1.797c-33.064,1.144-53.872,20.544-54.336,40.159c-0.244,10.416,4.785,20.447,14.77,26.248   l-0.652,0.557C10.918,85.411,3.16,74.064,3.455,59.074z"></path><path d="M18.844,65.656c3.279-16.372,21.514-28.878,50.168-27.383c3.968,0.209,8.473,0.598,12.494,1.479l-8.283,15.273   c-2.578-0.354-6.603-1.071-10.058-1.257C40.59,52.587,26.7,61.927,24.396,73.837c-1.237,6.395,1.385,13.541,7.928,18.034   l-0.656,0.504C20.464,86.175,16.835,75.665,18.844,65.656z"></path><path d="M32.375,73.946c5.484-9.222,22.011-12.208,36.767-8.624l-4.326,7.93c-11.73-2.699-25.31-0.866-29.202,5.896   c-2.116,3.68-0.936,8.737,1.454,12.306l-0.438,0.441C31.113,86.96,29.106,79.448,32.375,73.946z"></path></g></g></g><g id="SvgjsG1010" featurekey="text1" fill="#a029e0" transform="matrix(1.968472906403941,0,0,1.968472906403941,89.01576448543905,-5.409142181321318)"><path d="M6.12 16.38 c-0.36 -0.8 -0.94 -1.22 -1.72 -1.22 c-0.8 0 -1.4 0.48 -1.4 1.14 c0 0.6 0.34 1.02 1.18 1.32 l1.14 0.4 c1.64 0.58 3 1.2 3 3.1 c0 2.02 -1.98 3.1 -3.9 3.1 c-1.84 0 -3.52 -1.06 -3.92 -2.84 l1.72 -0.52 c0.3 0.94 1.08 1.62 2.2 1.62 c0.92 0 1.76 -0.54 1.76 -1.36 c0 -0.66 -0.46 -1.06 -1.34 -1.38 l-1.18 -0.42 c-1.92 -0.68 -2.76 -1.72 -2.76 -3.04 c0 -1.74 1.56 -2.86 3.42 -2.86 c1.8 0 3.04 0.98 3.6 2.46 z M14.8 13.42 c1.88 0 3.12 1.12 3.38 1.8 l0 -1.62 l2.16 0 l0 10.4 l-2.16 0 l0 -1.72 c-0.26 0.84 -1.5 1.92 -3.38 1.92 c-2.36 0 -5.18 -1.76 -5.18 -5.4 c0 -3.58 2.82 -5.38 5.18 -5.38 z M15.08 15.34 c-1.62 0 -3.36 1.16 -3.36 3.46 c0 2.32 1.74 3.48 3.36 3.48 s3.2 -1.14 3.2 -3.48 c0 -2.32 -1.58 -3.46 -3.2 -3.46 z M24.699999999999996 9.86 l0 14.14 l-2.16 0 l0 -14.14 l2.16 0 z M31.879999999999995 13.42 c2.36 0 5.56 1.8 5.06 6.16 l-8.28 0 c0.32 1.86 1.8 2.78 3.48 2.78 c1.38 0 2.12 -0.36 2.88 -0.96 l1.22 1.16 c-0.92 1.04 -2.24 1.64 -4.16 1.64 c-2.64 0 -5.58 -1.8 -5.58 -5.38 c0 -3.6 3.02 -5.4 5.38 -5.4 z M31.879999999999995 15.28 c-1.34 0 -2.84 0.9 -3.2 2.72 l6.36 0 c-0.24 -1.82 -1.82 -2.72 -3.16 -2.72 z M43.81999999999999 16.38 c-0.36 -0.8 -0.94 -1.22 -1.72 -1.22 c-0.8 0 -1.4 0.48 -1.4 1.14 c0 0.6 0.34 1.02 1.18 1.32 l1.14 0.4 c1.64 0.58 3 1.2 3 3.1 c0 2.02 -1.98 3.1 -3.9 3.1 c-1.84 0 -3.52 -1.06 -3.92 -2.84 l1.72 -0.52 c0.3 0.94 1.08 1.62 2.2 1.62 c0.92 0 1.76 -0.54 1.76 -1.36 c0 -0.66 -0.46 -1.06 -1.34 -1.38 l-1.18 -0.42 c-1.92 -0.68 -2.76 -1.72 -2.76 -3.04 c0 -1.74 1.56 -2.86 3.42 -2.86 c1.8 0 3.04 0.98 3.6 2.46 z M58.239999999999995 13.58 l-4.64 10.42 l-1.84 0 l-4.64 -10.42 l2.16 0 l3.4 7.72 l3.4 -7.72 l2.16 0 z M64.61999999999999 13.42 c1.88 0 3.12 1.12 3.38 1.8 l0 -1.62 l2.16 0 l0 10.4 l-2.16 0 l0 -1.72 c-0.26 0.84 -1.5 1.92 -3.38 1.92 c-2.36 0 -5.18 -1.76 -5.18 -5.4 c0 -3.58 2.82 -5.38 5.18 -5.38 z M64.89999999999999 15.34 c-1.62 0 -3.36 1.16 -3.36 3.46 c0 2.32 1.74 3.48 3.36 3.48 s3.2 -1.14 3.2 -3.48 c0 -2.32 -1.58 -3.46 -3.2 -3.46 z M85.29999999999998 13.44 c2 0 3.98 1.28 3.98 4.66 l0 5.9 l-2.16 0 l0 -5.9 c0 -1.78 -0.9 -2.76 -2.42 -2.76 c-1.58 0 -2.54 1.32 -2.8 2.62 l0 6.04 l-2.16 0 l0 -5.9 c0 -1.78 -1.1 -2.76 -2.44 -2.76 c-1.66 0 -2.56 1.32 -2.78 2.62 l0 6.04 l-2.16 0 l0 -10.4 l2.16 0 l0 2.26 c0.08 -0.66 1.1 -2.42 3.28 -2.42 c1.42 0 2.98 0.78 3.7 2.5 c0.32 -0.9 1.56 -2.5 3.8 -2.5 z M96.82 13.42 c2.36 0 5.18 1.8 5.18 5.38 c0 3.64 -2.82 5.4 -5.18 5.4 c-1.88 0 -3.12 -1.08 -3.38 -1.92 l0 5.52 l-2.16 0 l0 -6.34 l0 -7.86 l2.16 0 l0 1.62 c0.26 -0.68 1.5 -1.8 3.38 -1.8 z M96.53999999999999 22.28 c1.62 0 3.36 -1.16 3.36 -3.48 c0 -2.3 -1.74 -3.46 -3.36 -3.46 s-3.2 1.14 -3.2 3.46 c0 2.34 1.58 3.48 3.2 3.48 z"></path></g></svg>
